{
    "asset" : {
        "generator" : "Khronos glTF Blender I/O v3.3.27",
        "version" : "2.0"
    },
    "scene" : 0,
    "scenes" : [
        {
            "name" : "Scene",
            "nodes" : [
                0,
                1,
                2,
                3
            ]
        }
    ],
    "nodes" : [
        {
            "mesh" : 0,
            "name" : "Plane",
            "scale" : [
                25,
                1,
                25
            ]
        },
        {
            "mesh" : 1,
            "name" : "Bottle",
            "scale" : [
                0.6800000667572021,
                1,
                1
            ],
            "translation" : [
                0.17683082818984985,
                1.0018757581710815,
                0
            ]
        },
        {
            "mesh" : 2,
            "name" : "Plane.001",
            "rotation" : [
                0.5,
                0.5,
                -0.5,
                0.5
            ],
            "scale" : [
                1.0499999523162842,
                1,
                0.5
            ],
            "translation" : [
                0.7832317352294922,
                0.8810436725616455,
                0.0005654618144035339
            ]
        },
        {
            "mesh" : 3,
            "name" : "Torus",
            "translation" : [
                0.17809520661830902,
                2.172940969467163,
                -0.0023232847452163696
            ]
        }
    ],
    "materials" : [
        {
            "doubleSided" : true,
            "name" : "Material",
            "pbrMetallicRoughness" : {
                "baseColorTexture" : {
                    "index" : 0
                },
                "metallicFactor" : 0,
                "roughnessFactor" : 0.5
            }
        },
        {
            "doubleSided" : true,
            "name" : "Material.002",
            "pbrMetallicRoughness" : {
                "baseColorFactor" : [
                    0.13843168318271637,
                    0.02732086181640625,
                    0,
                    1
                ],
                "metallicFactor" : 0,
                "roughnessFactor" : 0
            }
        },
        {
            "doubleSided" : true,
            "name" : "Material.006",
            "pbrMetallicRoughness" : {
                "baseColorTexture" : {
                    "index" : 1
                },
                "metallicFactor" : 0,
                "roughnessFactor" : 0.5
            }
        },
        {
            "doubleSided" : true,
            "name" : "Material.007",
            "pbrMetallicRoughness" : {
                "baseColorTexture" : {
                    "index" : 2
                },
                "metallicFactor" : 0,
                "roughnessFactor" : 0.5
            }
        },
        {
            "doubleSided" : true,
            "name" : "Material.008",
            "pbrMetallicRoughness" : {
                "baseColorFactor" : [
                    0.5629609227180481,
                    0.5629609227180481,
                    0.5629609227180481,
                    1
                ],
                "metallicFactor" : 0,
                "roughnessFactor" : 0.5
            }
        }
    ],
    "meshes" : [
        {
            "name" : "Plane",
            "primitives" : [
                {
                    "attributes" : {
                        "POSITION" : 0,
                        "NORMAL" : 1,
                        "TEXCOORD_0" : 2
                    },
                    "indices" : 3,
                    "material" : 0
                }
            ]
        },
        {
            "name" : "Cylinder",
            "primitives" : [
                {
                    "attributes" : {
                        "POSITION" : 4,
                        "NORMAL" : 5,
                        "TEXCOORD_0" : 6
                    },
                    "indices" : 7,
                    "material" : 1
                }
            ]
        },
        {
            "name" : "Plane.001",
            "primitives" : [
                {
                    "attributes" : {
                        "POSITION" : 8,
                        "NORMAL" : 9,
                        "TEXCOORD_0" : 10
                    },
                    "indices" : 11,
                    "material" : 2
                }
            ]
        },
        {
            "name" : "Torus",
            "primitives" : [
                {
                    "attributes" : {
                        "POSITION" : 12,
                        "NORMAL" : 13,
                        "TEXCOORD_0" : 14
                    },
                    "indices" : 15,
                    "material" : 3
                },
                {
                    "attributes" : {
                        "POSITION" : 16,
                        "NORMAL" : 17,
                        "TEXCOORD_0" : 18
                    },
                    "indices" : 19,
                    "material" : 4
                }
            ]
        }
    ],
    "textures" : [
        {
            "sampler" : 0,
            "source" : 0
        },
        {
            "sampler" : 0,
            "source" : 1
        },
        {
            "sampler" : 0,
            "source" : 2
        }
    ],
    "images" : [
        {
            "bufferView" : 4,
            "mimeType" : "image/png",
            "name" : "Untitled"
        },
        {
            "bufferView" : 13,
            "mimeType" : "image/jpeg",
            "name" : "Picture3"
        },
        {
            "bufferView" : 18,
            "mimeType" : "image/png",
            "name" : "Untitled"
        }
    ],
    "accessors" : [
        {
            "bufferView" : 0,
            "componentType" : 5126,
            "count" : 7467,
            "max" : [
                1,
                0,
                1
            ],
            "min" : [
                -1,
                0,
                -1
            ],
            "type" : "VEC3"
        },
        {
            "bufferView" : 1,
            "componentType" : 5126,
            "count" : 7467,
            "type" : "VEC3"
        },
        {
            "bufferView" : 2,
            "componentType" : 5126,
            "count" : 7467,
            "type" : "VEC2"
        },
        {
            "bufferView" : 3,
            "componentType" : 5123,
            "count" : 42840,
            "type" : "SCALAR"
        },
        {
            "bufferView" : 5,
            "componentType" : 5126,
            "count" : 2078,
            "max" : [
                0.8736757636070251,
                1,
                0.8736755847930908
            ],
            "min" : [
                -0.8736756443977356,
                -1,
                -0.8736757636070251
            ],
            "type" : "VEC3"
        },
        {
            "bufferView" : 6,
            "componentType" : 5126,
            "count" : 2078,
            "type" : "VEC3"
        },
        {
            "bufferView" : 7,
            "componentType" : 5126,
            "count" : 2078,
            "type" : "VEC2"
        },
        {
            "bufferView" : 8,
            "componentType" : 5123,
            "count" : 11124,
            "type" : "SCALAR"
        },
        {
            "bufferView" : 9,
            "componentType" : 5126,
            "count" : 265,
            "max" : [
                0.7999921441078186,
                0.03401505574584007,
                1
            ],
            "min" : [
                -0.8323381543159485,
                -0.5237162113189697,
                -1
            ],
            "type" : "VEC3"
        },
        {
            "bufferView" : 10,
            "componentType" : 5126,
            "count" : 265,
            "type" : "VEC3"
        },
        {
            "bufferView" : 11,
            "componentType" : 5126,
            "count" : 265,
            "type" : "VEC2"
        },
        {
            "bufferView" : 12,
            "componentType" : 5123,
            "count" : 1419,
            "type" : "SCALAR"
        },
        {
            "bufferView" : 14,
            "componentType" : 5126,
            "count" : 2304,
            "max" : [
                0.5800000429153442,
                0.009999999776482582,
                0.5800000429153442
            ],
            "min" : [
                -0.5800000429153442,
                -0.009999999776482582,
                -0.5800000429153442
            ],
            "type" : "VEC3"
        },
        {
            "bufferView" : 15,
            "componentType" : 5126,
            "count" : 2304,
            "type" : "VEC3"
        },
        {
            "bufferView" : 16,
            "componentType" : 5126,
            "count" : 2304,
            "type" : "VEC2"
        },
        {
            "bufferView" : 17,
            "componentType" : 5123,
            "count" : 3456,
            "type" : "SCALAR"
        },
        {
            "bufferView" : 19,
            "componentType" : 5126,
            "count" : 192,
            "max" : [
                0.625,
                -1.52587890625e-05,
                0.6275144815444946
            ],
            "min" : [
                -0.625,
                -0.2500152587890625,
                -0.6224855184555054
            ],
            "type" : "VEC3"
        },
        {
            "bufferView" : 20,
            "componentType" : 5126,
            "count" : 192,
            "type" : "VEC3"
        },
        {
            "bufferView" : 21,
            "componentType" : 5126,
            "count" : 192,
            "type" : "VEC2"
        },
        {
            "bufferView" : 22,
            "componentType" : 5123,
            "count" : 372,
            "type" : "SCALAR"
        }
    ],
    "bufferViews" : [
        {
            "buffer" : 0,
            "byteLength" : 89604,
            "byteOffset" : 0,
            "target" : 34962
        },
        {
            "buffer" : 0,
            "byteLength" : 89604,
            "byteOffset" : 89604,
            "target" : 34962
        },
        {
            "buffer" : 0,
            "byteLength" : 59736,
            "byteOffset" : 179208,
            "target" : 34962
        },
        {
            "buffer" : 0,
            "byteLength" : 85680,
            "byteOffset" : 238944,
            "target" : 34963
        },
        {
            "buffer" : 0,
            "byteLength" : 1085001,
            "byteOffset" : 324624
        },
        {
            "buffer" : 0,
            "byteLength" : 24936,
            "byteOffset" : 1409628,
            "target" : 34962
        },
        {
            "buffer" : 0,
            "byteLength" : 24936,
            "byteOffset" : 1434564,
            "target" : 34962
        },
        {
            "buffer" : 0,
            "byteLength" : 16624,
            "byteOffset" : 1459500,
            "target" : 34962
        },
        {
            "buffer" : 0,
            "byteLength" : 22248,
            "byteOffset" : 1476124,
            "target" : 34963
        },
        {
            "buffer" : 0,
            "byteLength" : 3180,
            "byteOffset" : 1498372,
            "target" : 34962
        },
        {
            "buffer" : 0,
            "byteLength" : 3180,
            "byteOffset" : 1501552,
            "target" : 34962
        },
        {
            "buffer" : 0,
            "byteLength" : 2120,
            "byteOffset" : 1504732,
            "target" : 34962
        },
        {
            "buffer" : 0,
            "byteLength" : 2838,
            "byteOffset" : 1506852,
            "target" : 34963
        },
        {
            "buffer" : 0,
            "byteLength" : 28053,
            "byteOffset" : 1509692
        },
        {
            "buffer" : 0,
            "byteLength" : 27648,
            "byteOffset" : 1537748,
            "target" : 34962
        },
        {
            "buffer" : 0,
            "byteLength" : 27648,
            "byteOffset" : 1565396,
            "target" : 34962
        },
        {
            "buffer" : 0,
            "byteLength" : 18432,
            "byteOffset" : 1593044,
            "target" : 34962
        },
        {
            "buffer" : 0,
            "byteLength" : 6912,
            "byteOffset" : 1611476,
            "target" : 34963
        },
        {
            "buffer" : 0,
            "byteLength" : 683228,
            "byteOffset" : 1618388
        },
        {
            "buffer" : 0,
            "byteLength" : 2304,
            "byteOffset" : 2301616,
            "target" : 34962
        },
        {
            "buffer" : 0,
            "byteLength" : 2304,
            "byteOffset" : 2303920,
            "target" : 34962
        },
        {
            "buffer" : 0,
            "byteLength" : 1536,
            "byteOffset" : 2306224,
            "target" : 34962
        },
        {
            "buffer" : 0,
            "byteLength" : 744,
            "byteOffset" : 2307760,
            "target" : 34963
        }
    ],
    "samplers" : [
        {
            "magFilter" : 9729,
            "minFilter" : 9987
        }
    ],
    "buffers" : [
        {
            "byteLength" : 2308504,
            "uri" : "data:application/octet-stream;base64,"
        }
    ]
}
